<?xml version="1.0" encoding="UTF-8"?>
<svg width="159px" height="110px" viewBox="0 0 159 110" version="1.1" xmlns="http://www.w3.org/2000/svg">
    <g stroke="none" stroke-width="1" fill="none" fill-rule="evenodd">
        <g transform="translate(-11.000000, -35.000000)">
            <path d="M159.707692,51.7333333 C159.707692,51.7333333 158.099846,41.7185185 154.516923,38.0259259 C149.911385,33.1907407 144.734769,33.1592593 141.551385,32.837037 C127.373538,31.7777778 90.5235385,31.7777778 90.5235385,31.7777778 L90.4615385,31.7777778 C90.4615385,31.7777778 53.6115385,31.7777778 39.4336923,32.837037 C36.2503077,33.1592593 31.0736923,33.1907407 26.4681538,38.0259259 C22.8852308,41.7185185 21.2773846,51.7333333 21.2773846,51.7333333 C21.2773846,51.7333333 19.6307692,63.5259259 19.6307692,75.287037 L19.6307692,86.3518519 C19.6307692,98.1444444 21.2773846,109.905556 21.2773846,109.905556 C21.2773846,109.905556 22.8852308,119.92037 26.4681538,123.613333 C31.0736923,128.448148 37.1832308,128.290370 40.7661538,128.893333 C52.4986154,129.937037 90.4615385,130.222222 90.4615385,130.222222 C90.4615385,130.222222 127.373538,130.191111 141.551385,129.162963 C144.734769,128.84074 149.911385,128.809259 154.516923,123.974074 C158.099846,120.281481 159.707692,110.266667 159.707692,110.266667 C159.707692,110.266667 161.384615,98.5055556 161.384615,86.7129630 L161.384615,75.6481481 C161.353846,63.8555556 159.707692,51.7333333 159.707692,51.7333333 L159.707692,51.7333333 Z" fill="#FF0000"></path>
            <polygon fill="#FFFFFF" points="78.7692308 97.2222222 78.7692308 63.7777778 109.846154 80.5"></polygon>
        </g>
    </g>
</svg>